<svg width="511" height="98" viewBox="0 0 511 98" fill="none" xmlns="http://www.w3.org/2000/svg">
<path fill-rule="evenodd" clip-rule="evenodd" d="M0 49.242V97.984L23.278 74.722L46.556 51.46L69.269 74.73L91.983 98L91.991 49.25L92 0.499984H76.382H60.765L56.977 4.24998C54.894 6.31198 51.565 9.55698 49.58 11.46L45.971 14.921L38.712 7.70998L31.453 0.499984H15.726H0V49.242ZM104.394 1.91598C104.095 2.69398 103.997 4.60698 104.175 6.16598L104.5 8.99998L150.75 9.25998L197 9.51998V5.00998V0.499984H150.969C112.195 0.499984 104.852 0.722984 104.394 1.91598ZM209.667 1.16698C209.3 1.53298 209 23.467 209 49.909V97.984L232.255 74.745L255.511 51.505L278.763 74.753L302.015 98L301.757 49.5L301.5 0.999984L286.049 0.722984L270.599 0.445984L263.026 7.97398L255.453 15.503L248.001 8.00098L240.55 0.499984H225.442C217.132 0.499984 210.033 0.799984 209.667 1.16698ZM321.225 7.77398L314 15.047V49V82.953L321.225 90.226L328.45 97.5H360.502H392.554L399.277 90.725L406 83.95V49.45V14.95L398.726 7.72498L391.453 0.499984H359.951H328.45L321.225 7.77398ZM418.714 1.11898C418.321 1.51198 418 23.358 418 49.667V97.5H422.5H427V75.5V53.5H465H503V75.5V97.5H507H511V49V0.499984H507H503V23V45.5H465.019H427.038L426.769 23.25L426.5 0.999984L422.964 0.701984C421.02 0.538984 419.107 0.725984 418.714 1.11898ZM393.216 14.212L398 18.925V49.428V79.931L393.288 84.716L388.575 89.5H360.06H331.545L326.806 84.25L322.068 79L322.034 49.034L322 19.069L326.712 14.284L331.425 9.49998H359.928H388.431L393.216 14.212ZM104 49.5V53.5H150.5H197V49.5V45.5H150.5H104V49.5ZM104 93.5V97.5H150.5H197V93.5V89.5H150.5H104V93.5Z" fill="white"/>
</svg>
